<svg xmlns="http://www.w3.org/2000/svg" viewBox="0 0 750 500"><g id="freepik--background-complete--inject-29"><path d="M685.44,125.36l5.89-9.49-2.91-1.8a2.66,2.66,0,0,1-1.23-2.5,13.25,13.25,0,0,0,0-1.67,2.67,2.67,0,0,1,1.39-2.41l3-1.61L686.36,96l-3,1.62a2.66,2.66,0,0,1-2.77-.18,15.13,15.13,0,0,0-1.42-.88,2.64,2.64,0,0,1-1.4-2.41l.1-3.42-11.16-.35-.1,3.43A2.66,2.66,0,0,1,665,96.15l-.73.37c-.25.13-.48.27-.72.41a2.63,2.63,0,0,1-2.77,0l-2.93-1.81L652,104.63l2.91,1.81a2.67,2.67,0,0,1,1.23,2.5,15.26,15.26,0,0,0-.06,1.66,2.67,2.67,0,0,1-1.38,2.41l-3,1.61,5.28,9.85,3-1.62a2.66,2.66,0,0,1,2.77.18,14.87,14.87,0,0,0,1.41.87,2.67,2.67,0,0,1,1.41,2.41l-.11,3.43,11.16.34.11-3.42a2.66,2.66,0,0,1,1.55-2.31c.25-.11.5-.24.74-.37s.48-.26.72-.41a2.65,2.65,0,0,1,2.78,0Zm-9.45-7a9.15,9.15,0,1,1,3.75-12.38A9.14,9.14,0,0,1,676,118.31Z" style="fill:#ebebeb"></path><path d="M127.88,358.9,124,352.12l-2.07,1.2a1.85,1.85,0,0,1-2-.07,10.29,10.29,0,0,0-1-.58,1.86,1.86,0,0,1-1-1.66v-2.39h-7.83V351a1.86,1.86,0,0,1-1,1.66,9.12,9.12,0,0,0-1,.58,1.85,1.85,0,0,1-2,.07l-2.08-1.2-3.91,6.78,2.09,1.2a1.87,1.87,0,0,1,.91,1.72c0,.19,0,.39,0,.58s0,.38,0,.57a1.87,1.87,0,0,1-.91,1.72l-2.09,1.21,3.91,6.78,2.08-1.2a1.85,1.85,0,0,1,2,.07c.33.21.66.4,1,.58a1.85,1.85,0,0,1,1,1.65v2.4h7.83v-2.4a1.86,1.86,0,0,1,1-1.65,11,11,0,0,0,1-.58,1.85,1.85,0,0,1,2-.07l2.08,1.2,3.91-6.78-2.08-1.2a1.87,1.87,0,0,1-.91-1.72c0-.19,0-.39,0-.58s0-.39,0-.58a1.87,1.87,0,0,1,.91-1.72Zm-7.48,3.5A6.41,6.41,0,1,1,114,356,6.4,6.4,0,0,1,120.4,362.4Z" style="fill:#ebebeb"></path><path d="M96.08,259.2a30.47,30.47,0,1,0,30.47,30.47A30.45,30.45,0,0,0,96.08,259.2Zm0,44.69a14.23,14.23,0,1,1,14.23-14.22A14.23,14.23,0,0,1,96.08,303.89Z" style="fill:#ebebeb"></path><polygon points="101.94 260.46 90.22 260.46 90.87 252.16 101.29 252.16 101.94 260.46" style="fill:#ebebeb"></polygon><polygon points="79.63 264.41 71.35 272.69 65.94 266.37 73.31 259 79.63 264.41" style="fill:#ebebeb"></polygon><polygon points="66.65 282.97 66.65 294.69 58.36 294.04 58.36 283.62 66.65 282.97" style="fill:#ebebeb"></polygon><polygon points="70.6 305.27 78.89 313.56 72.56 318.97 65.19 311.6 70.6 305.27" style="fill:#ebebeb"></polygon><polygon points="89.16 318.25 100.88 318.25 100.23 326.55 89.81 326.55 89.16 318.25" style="fill:#ebebeb"></polygon><polygon points="111.47 314.3 119.75 306.02 125.16 312.34 117.79 319.71 111.47 314.3" style="fill:#ebebeb"></polygon><polygon points="124.45 295.74 124.45 284.02 132.74 284.67 132.74 295.09 124.45 295.74" style="fill:#ebebeb"></polygon><polygon points="120.5 273.44 112.21 265.15 118.54 259.75 125.91 267.12 120.5 273.44" style="fill:#ebebeb"></polygon><path d="M637.1,154.82a30.48,30.48,0,1,0,30.47,30.48A30.47,30.47,0,0,0,637.1,154.82Zm0,44.7a14.23,14.23,0,1,1,14.23-14.22A14.22,14.22,0,0,1,637.1,199.52Z" style="fill:#ebebeb"></path><polygon points="642.96 156.09 631.24 156.09 631.89 147.79 642.31 147.79 642.96 156.09" style="fill:#ebebeb"></polygon><polygon points="620.65 160.04 612.37 168.32 606.96 162 614.33 154.63 620.65 160.04" style="fill:#ebebeb"></polygon><polygon points="607.67 178.6 607.67 190.32 599.38 189.67 599.38 179.25 607.67 178.6" style="fill:#ebebeb"></polygon><polygon points="611.62 200.9 619.91 209.19 613.59 214.6 606.22 207.23 611.62 200.9" style="fill:#ebebeb"></polygon><polygon points="630.19 213.88 641.9 213.88 641.26 222.18 630.83 222.18 630.19 213.88" style="fill:#ebebeb"></polygon><polygon points="652.49 209.93 660.78 201.65 666.18 207.97 658.81 215.34 652.49 209.93" style="fill:#ebebeb"></polygon><polygon points="665.47 191.37 665.47 179.65 673.76 180.3 673.76 190.72 665.47 191.37" style="fill:#ebebeb"></polygon><polygon points="661.52 169.07 653.24 160.78 659.56 155.37 666.93 162.74 661.52 169.07" style="fill:#ebebeb"></polygon></g><g id="freepik--Device--inject-29"><rect x="154.28" y="96.15" width="441.45" height="295.29" style="fill:#dbdbdb"></rect><rect x="157.49" y="99.75" width="435.03" height="288.09" style="fill:#263238"></rect><rect x="96.78" y="413.59" width="556.44" height="20.27" style="fill:#c7c7c7"></rect><polygon points="96.78 413.59 154.28 391.44 595.72 391.44 653.22 413.59 96.78 413.59" style="fill:#dbdbdb"></polygon><polygon points="159.41 405.73 196.51 391.44 553.49 391.44 590.59 405.73 159.41 405.73" style="fill:#263238"></polygon><rect x="181.74" y="121.53" width="386.51" height="244.52" style="fill:#fff"></rect><rect x="181.74" y="121.53" width="386.51" height="9.41" style="fill:#455a64"></rect><path d="M189.22,126.24a2.33,2.33,0,1,1-2.33-2.33A2.33,2.33,0,0,1,189.22,126.24Z" style="fill:#8F9399"></path><path d="M198.75,126.24a2.34,2.34,0,1,1-2.33-2.33A2.33,2.33,0,0,1,198.75,126.24Z" style="fill:#ebebeb"></path><path d="M208.28,126.24a2.34,2.34,0,1,1-2.33-2.33A2.33,2.33,0,0,1,208.28,126.24Z" style="fill:#fff"></path><rect x="366.57" y="236.19" width="70.42" height="54.03" transform="translate(803.56 526.41) rotate(180)" style="fill:#8F9399"></rect><path d="M373.58,248a6.39,6.39,0,1,0,5-5A6.4,6.4,0,0,0,373.58,248Z" style="fill:#fff;opacity:0.6000000000000001"></path><polygon points="389.8 278.58 436.99 278.58 413.4 249.5 389.8 278.58" style="fill:#8F9399"></polygon><polygon points="389.8 278.58 436.99 278.58 413.4 249.5 389.8 278.58" style="opacity:0.2"></polygon><polygon points="366.57 278.61 408.42 278.61 387.49 259.67 366.57 278.61" style="fill:#8F9399"></polygon><polygon points="366.57 278.61 408.42 278.61 387.49 259.67 366.57 278.61" style="opacity:0.1"></polygon><rect x="366.57" y="278.58" width="70.42" height="11.64" style="fill:#8F9399"></rect><rect x="366.57" y="278.58" width="70.42" height="11.64" style="opacity:0.1"></rect><rect x="200.83" y="236.19" width="52.9" height="4.45" style="fill:#dbdbdb"></rect><rect x="200.83" y="246.51" width="153.08" height="4.45" style="fill:#dbdbdb"></rect><rect x="200.83" y="256.31" width="153.08" height="4.45" style="fill:#dbdbdb"></rect><rect x="200.83" y="266.1" width="153.08" height="4.45" style="fill:#dbdbdb"></rect><rect x="200.83" y="275.89" width="153.08" height="4.45" style="fill:#dbdbdb"></rect><rect x="200.83" y="285.68" width="153.08" height="4.45" style="fill:#dbdbdb"></rect><rect x="328.32" y="148.82" width="52.9" height="11.91" style="fill:#dbdbdb"></rect><rect x="328.32" y="168.94" width="108.68" height="4.45" style="fill:#dbdbdb"></rect><rect x="328.32" y="178.73" width="108.68" height="4.45" style="fill:#dbdbdb"></rect><rect x="328.32" y="188.52" width="108.68" height="4.45" style="fill:#dbdbdb"></rect><rect x="328.32" y="198.31" width="108.68" height="4.45" style="fill:#dbdbdb"></rect><rect x="328.32" y="211.34" width="108.68" height="4.45" style="fill:#dbdbdb"></rect><rect x="328.32" y="221.13" width="108.68" height="4.45" style="fill:#dbdbdb"></rect><rect x="452.42" y="148.82" width="96.73" height="12.12" style="fill:#8F9399"></rect><rect x="452.69" y="160.94" width="96.22" height="129.06" style="fill:#fff"></rect><path d="M549.17,290.22H452.42V160.73h96.75ZM453,289.79h95.68V161.16H453Z" style="fill:#dbdbdb"></path><polygon points="452.94 290.09 452.44 289.93 548.65 160.86 549.15 161.02 452.94 290.09" style="fill:#dbdbdb"></polygon><polygon points="548.65 290.09 452.44 161.02 452.94 160.86 549.15 289.93 548.65 290.09" style="fill:#dbdbdb"></polygon><rect x="201.03" y="149.03" width="115.28" height="76.34" style="fill:#fff"></rect><path d="M200.85,225.58v-.19l0-76.53H201l115.48,0,0,76.73h-.19Zm.37-76.34,0,75.95,114.9,0,0-75.95Z" style="fill:#dbdbdb"></path><path d="M201.22,149.24c9.69,6.15,19.33,12.39,28.95,18.64L259,186.76l28.66,19.08,14.28,9.61,14.23,9.71-14.51-9.27-14.45-9.36-28.8-18.88-28.66-19.08C220.19,162.17,210.67,155.76,201.22,149.24Z" style="fill:#dbdbdb"></path><path d="M316.14,149.24c-9.46,6.52-19,12.93-28.51,19.33L259,187.65l-28.8,18.88-14.44,9.36-14.51,9.27,14.22-9.71,14.28-9.61,28.66-19.08,28.8-18.88C296.8,161.63,306.44,155.39,316.14,149.24Z" style="fill:#dbdbdb"></path></g><g id="freepik--Screens--inject-29"><rect x="533.85" y="60.55" width="93.64" height="59.73" style="fill:#fff"></rect><path d="M628.08,120.87H533.25V60h94.83Zm-93.64-1.18h92.45V61.14H534.44Z" style="fill:#ebebeb"></path><rect x="533.85" y="60.55" width="93.64" height="11.3" style="fill:#455a64"></rect><path d="M544.45,66.28a2.85,2.85,0,1,1-2.84-2.85A2.84,2.84,0,0,1,544.45,66.28Z" style="fill:#8F9399"></path><path d="M556.06,66.28a2.85,2.85,0,1,1-2.84-2.85A2.84,2.84,0,0,1,556.06,66.28Z" style="fill:#ebebeb"></path><path d="M567.67,66.28a2.85,2.85,0,1,1-2.84-2.85A2.84,2.84,0,0,1,567.67,66.28Z" style="fill:#fff"></path><path d="M550,94.18a11.55,11.55,0,0,1,11.54-11.33,11.78,11.78,0,0,1,7.27,2.46,1.8,1.8,0,0,1-2.2,2.86,7.88,7.88,0,0,0-5.07-1.73,8.34,8.34,0,0,0-5.66,2.26,7.76,7.76,0,0,0-2.3,5.48,7.62,7.62,0,0,0,2.3,5.47,8.3,8.3,0,0,0,5.66,2.27,7.94,7.94,0,0,0,5.07-1.73,1.91,1.91,0,0,1,2.52.34,1.86,1.86,0,0,1-.32,2.52,11.78,11.78,0,0,1-7.27,2.46A11.51,11.51,0,0,1,550,94.18Z" style="fill:#ebebeb"></path><path d="M574.55,100a1.63,1.63,0,0,1,2.29-.22,10.25,10.25,0,0,0,6,2.42,6.78,6.78,0,0,0,3.93-1.16,2.83,2.83,0,0,0,1.36-2.27,1.78,1.78,0,0,0-.29-1,2.89,2.89,0,0,0-.94-1,12.79,12.79,0,0,0-4.31-1.48h-.06a17.08,17.08,0,0,1-4.06-1.22,6.79,6.79,0,0,1-2.93-2.46,4.82,4.82,0,0,1-.72-2.58,5.81,5.81,0,0,1,2.52-4.59,9.26,9.26,0,0,1,5.44-1.67,12.33,12.33,0,0,1,6.86,2.52,1.62,1.62,0,0,1,.44,2.23,1.6,1.6,0,0,1-2.24.48c-1.6-1.07-3.14-2-5.06-2a6,6,0,0,0-3.53,1.07,2.52,2.52,0,0,0-1.19,2,1.5,1.5,0,0,0,.22.88,2.91,2.91,0,0,0,.85.82,10.85,10.85,0,0,0,3.93,1.39h.06a18.21,18.21,0,0,1,4.35,1.32,7.34,7.34,0,0,1,3.14,2.61,5,5,0,0,1,.76,2.67,6.07,6.07,0,0,1-2.71,4.88,9.84,9.84,0,0,1-5.82,1.79,13.56,13.56,0,0,1-8.05-3.14A1.68,1.68,0,0,1,574.55,100Z" style="fill:#ebebeb"></path><path d="M595.22,100a1.63,1.63,0,0,1,2.29-.22,10.25,10.25,0,0,0,6,2.42,6.78,6.78,0,0,0,3.93-1.16,2.83,2.83,0,0,0,1.36-2.27,1.78,1.78,0,0,0-.29-1,2.89,2.89,0,0,0-.94-1,12.79,12.79,0,0,0-4.31-1.48h-.06a17.08,17.08,0,0,1-4.06-1.22,6.79,6.79,0,0,1-2.93-2.46,4.82,4.82,0,0,1-.72-2.58A5.81,5.81,0,0,1,598,84.52a9.26,9.26,0,0,1,5.44-1.67,12.33,12.33,0,0,1,6.86,2.52,1.62,1.62,0,0,1,.44,2.23,1.6,1.6,0,0,1-2.24.48c-1.6-1.07-3.14-2-5.06-2a6,6,0,0,0-3.53,1.07,2.52,2.52,0,0,0-1.19,2A1.5,1.5,0,0,0,599,90a2.91,2.91,0,0,0,.85.82,10.85,10.85,0,0,0,3.93,1.39h.06a18.21,18.21,0,0,1,4.35,1.32,7.34,7.34,0,0,1,3.14,2.61,5.14,5.14,0,0,1,.76,2.67,6.07,6.07,0,0,1-2.71,4.88,9.84,9.84,0,0,1-5.82,1.79,13.56,13.56,0,0,1-8-3.14A1.68,1.68,0,0,1,595.22,100Z" style="fill:#ebebeb"></path><rect x="589.65" y="142.82" width="52.57" height="23.62" style="fill:#455a64"></rect><path d="M605.29,155.68h-2.18v3.85a1,1,0,0,1-2,0V149.05a1,1,0,0,1,1-1h3.17a3.8,3.8,0,1,1,0,7.6Zm-2.18-2h2.18a1.83,1.83,0,1,0,0-3.66h-2.18Z" style="fill:#fff"></path><path d="M611.49,159.53V149.05a1,1,0,0,1,1-1,1,1,0,0,1,1,1v4.27h4.6v-4.27a1,1,0,0,1,1-1,1,1,0,0,1,1,1v10.48a1,1,0,0,1-1,1,1,1,0,0,1-1-1v-4.26h-4.6v4.26a1,1,0,0,1-1,1A1,1,0,0,1,611.49,159.53Z" style="fill:#fff"></path><path d="M628.23,155.68h-2.18v3.85a1,1,0,0,1-1,1,1,1,0,0,1-1-1V149.05a1,1,0,0,1,1-1h3.18a3.8,3.8,0,1,1,0,7.6Zm-2.18-2h2.18a1.83,1.83,0,1,0,0-3.66h-2.18Z" style="fill:#fff"></path><g style="opacity:0.8"><rect x="398.47" y="247.83" width="156.16" height="109.4" style="fill:#fff"></rect><path d="M555.23,357.83H397.88V247.24H555.23Zm-156.16-1.18h155V248.43h-155Z" style="fill:#ebebeb"></path><rect x="398.47" y="247.83" width="156.16" height="11.3" style="fill:#455a64"></rect><path d="M555.23,259.72H397.88V247.24H555.23Zm-156.16-1.18h155V248.43h-155Z" style="fill:#ebebeb"></path><path d="M409.08,253.56a2.85,2.85,0,1,1-2.85-2.84A2.86,2.86,0,0,1,409.08,253.56Z" style="fill:#8F9399"></path><path d="M420.69,253.56a2.85,2.85,0,1,1-2.85-2.84A2.86,2.86,0,0,1,420.69,253.56Z" style="fill:#ebebeb"></path><path d="M432.3,253.56a2.85,2.85,0,1,1-2.85-2.84A2.86,2.86,0,0,1,432.3,253.56Z" style="fill:#fff"></path><rect x="410.59" y="281.6" width="6.04" height="2.21" style="fill:#ebebeb"></rect><rect x="421.03" y="281.6" width="69.28" height="2.21" style="fill:#ebebeb"></rect><rect x="494.02" y="281.6" width="11.47" height="2.21" style="fill:#8F9399"></rect><rect x="507.99" y="281.6" width="19.83" height="2.21" style="fill:#a6a6a6"></rect><rect x="416.63" y="287.51" width="6.04" height="2.21" style="fill:#ebebeb"></rect><rect x="426.92" y="287.51" width="45.46" height="2.21" style="fill:#a6a6a6"></rect><rect x="421.03" y="305.22" width="43.42" height="2.21" style="fill:#a6a6a6"></rect><rect x="426.92" y="293.41" width="30.46" height="2.21" style="fill:#8F9399"></rect><rect x="501.69" y="299.31" width="11.62" height="2.21" style="fill:#a6a6a6"></rect><rect x="460.77" y="293.41" width="48.65" height="2.21" style="fill:#a6a6a6"></rect><rect x="421.03" y="311.12" width="58.07" height="2.21" style="fill:#8F9399"></rect><rect x="506.71" y="287.51" width="31.47" height="2.21" style="fill:#8F9399"></rect><rect x="475.24" y="287.51" width="28.97" height="2.21" style="fill:#ebebeb"></rect><rect x="511.7" y="293.41" width="19.55" height="2.21" style="fill:#ebebeb"></rect><rect x="416.63" y="293.41" width="6.04" height="2.21" style="fill:#ebebeb"></rect><rect x="410.59" y="299.31" width="6.04" height="2.21" style="fill:#a6a6a6"></rect><rect x="421.03" y="299.31" width="35.69" height="2.21" style="fill:#ebebeb"></rect><rect x="466.92" y="305.22" width="38.58" height="2.21" style="fill:#ebebeb"></rect><rect x="507.99" y="305.22" width="24.55" height="2.21" style="fill:#8F9399"></rect><rect x="460.35" y="299.31" width="38.53" height="2.21" style="fill:#8F9399"></rect><rect x="410.59" y="305.22" width="6.04" height="2.21" style="fill:#ebebeb"></rect><rect x="410.59" y="311.12" width="6.04" height="2.21" style="fill:#ebebeb"></rect><path d="M414.32,275.79a.53.53,0,0,1,0,.75.51.51,0,0,1-.36.15.54.54,0,0,1-.38-.15l-2.33-2.36a.05.05,0,0,1,0-.05l0,0a.1.1,0,0,1,0-.07l0,0s0,0,0-.05,0,0,0,0v-.06s0,0,0-.05v-.1s0,0,0,0l0-.07s0,0,0,0,0,0,0-.07a0,0,0,0,1,0,0s0,0,.05-.05l2.33-2.37a.53.53,0,0,1,.74,0,.53.53,0,0,1,0,.75l-2,2Z" style="fill:#8F9399"></path><path d="M416.43,276.06l2-4.84a.45.45,0,1,1,.83.35l-2,4.84a.45.45,0,0,1-.42.28.35.35,0,0,1-.17,0A.44.44,0,0,1,416.43,276.06Z" style="fill:#8F9399"></path><path d="M423.31,274.11h0l-.05.06-2.33,2.36a.54.54,0,0,1-.38.15.53.53,0,0,1-.37-.15.53.53,0,0,1,0-.75l2-2-2-2a.53.53,0,0,1,0-.75.54.54,0,0,1,.75,0l2.33,2.37.05.05s0,0,0,0,0,.05,0,.07,0,0,0,0a.41.41,0,0,0,0,.08s0,0,0,0v.21h0s0,.06,0,.08v0A.2.2,0,0,1,423.31,274.11Z" style="fill:#8F9399"></path></g><rect x="148.39" y="252.23" width="63.79" height="23.62" style="fill:#8F9399"></rect><path d="M157.59,268.94V258.46a1,1,0,0,1,2,0v4.27h4.6v-4.27a1,1,0,0,1,2,0v10.48a1,1,0,0,1-2,0v-4.26h-4.6v4.26a1,1,0,0,1-2,0Z" style="fill:#fff"></path><path d="M177.78,259.46H175v9.48a1,1,0,0,1-1,1,1,1,0,0,1-1-1v-9.48h-2.8a1,1,0,0,1-1-1,1,1,0,0,1,1-1h7.58a1,1,0,0,1,1,1A1,1,0,0,1,177.78,259.46Z" style="fill:#fff"></path><path d="M192.37,258.46v10.48a1,1,0,0,1-1,1,1,1,0,0,1-1-1v-7.47L187.84,265a1,1,0,0,1-.8.4h0a1,1,0,0,1-.82-.4l-2.54-3.55v7.47a1,1,0,0,1-2,0V258.46a1,1,0,0,1,1-1h.05a1,1,0,0,1,.78.41l3.54,4.9,3.53-4.9a1,1,0,0,1,.8-.41h0A1,1,0,0,1,192.37,258.46Z" style="fill:#fff"></path><path d="M196.67,268.94V258.46a1,1,0,0,1,1-1,1,1,0,0,1,1,1V268h4.81a1,1,0,0,1,0,2h-5.81A1,1,0,0,1,196.67,268.94Z" style="fill:#fff"></path><rect x="622.66" y="224.38" width="35.61" height="23.62" style="fill:#8F9399"></rect><path d="M632.33,238.48a2.37,2.37,0,0,0,4.62-.73v-6.82a1,1,0,0,1,1.91,0v6.82a4.27,4.27,0,0,1-8.34,1.31.93.93,0,0,1,.61-1.19A.94.94,0,0,1,632.33,238.48Z" style="fill:#fff"></path><path d="M641.26,239a.89.89,0,0,1,1.25-.12,5.67,5.67,0,0,0,3.29,1.32,3.71,3.71,0,0,0,2.15-.64,1.54,1.54,0,0,0,.74-1.23.92.92,0,0,0-.16-.55,1.56,1.56,0,0,0-.51-.52,6.9,6.9,0,0,0-2.36-.81h0a9,9,0,0,1-2.22-.67,3.69,3.69,0,0,1-1.6-1.34,2.61,2.61,0,0,1-.4-1.41,3.18,3.18,0,0,1,1.38-2.51,5.05,5.05,0,0,1,3-.91,6.78,6.78,0,0,1,3.75,1.37.88.88,0,0,1,.24,1.22.86.86,0,0,1-1.22.26,5,5,0,0,0-2.77-1.1,3.22,3.22,0,0,0-1.92.59,1.35,1.35,0,0,0-.66,1.08.8.8,0,0,0,.13.48,1.64,1.64,0,0,0,.46.45,5.9,5.9,0,0,0,2.15.75h0a10.39,10.39,0,0,1,2.38.73,4.08,4.08,0,0,1,1.72,1.42,2.89,2.89,0,0,1,.41,1.47A3.32,3.32,0,0,1,649,241a5.36,5.36,0,0,1-3.18,1,7.38,7.38,0,0,1-4.4-1.72A.91.91,0,0,1,641.26,239Z" style="fill:#fff"></path><rect x="81" y="84.34" width="93.64" height="59.73" style="fill:#fff"></rect><path d="M175.23,144.67H80.41V83.75h94.82Zm-93.64-1.19h92.46V84.94H81.59Z" style="fill:#ebebeb"></path><rect x="81" y="84.34" width="93.64" height="11.3" style="fill:#455a64"></rect><path d="M175.23,96.23H80.41V83.75h94.82ZM81.59,95.05h92.46V84.94H81.59Z" style="fill:#ebebeb"></path><path d="M91.6,90.07a2.84,2.84,0,1,1-2.84-2.84A2.84,2.84,0,0,1,91.6,90.07Z" style="fill:#8F9399"></path><path d="M103.21,90.07a2.84,2.84,0,1,1-2.84-2.84A2.84,2.84,0,0,1,103.21,90.07Z" style="fill:#ebebeb"></path><path d="M114.82,90.07A2.85,2.85,0,1,1,112,87.23,2.84,2.84,0,0,1,114.82,90.07Z" style="fill:#fff"></path><path d="M98.48,118A11.56,11.56,0,0,1,110,106.65a11.8,11.8,0,0,1,7.27,2.45,1.81,1.81,0,0,1-2.21,2.87,7.78,7.78,0,0,0-5.06-1.73,8.32,8.32,0,0,0-5.66,2.26,7.76,7.76,0,0,0-2.3,5.48,7.62,7.62,0,0,0,2.3,5.47,8.28,8.28,0,0,0,5.66,2.27,7.89,7.89,0,0,0,5.06-1.73,1.91,1.91,0,0,1,2.52.34,1.86,1.86,0,0,1-.31,2.52A11.8,11.8,0,0,1,110,129.3,11.51,11.51,0,0,1,98.48,118Z" style="fill:#ebebeb"></path><path d="M128.65,120h-4.47a1.73,1.73,0,0,1,0-3.46h4.47v-4.38a1.8,1.8,0,0,1,3.59,0v4.38h4.47a1.73,1.73,0,0,1,0,3.46h-4.47v4.37a1.8,1.8,0,1,1-3.59,0Z" style="fill:#ebebeb"></path><path d="M148.16,120h-4.47a1.73,1.73,0,1,1,0-3.46h4.47v-4.38a1.77,1.77,0,0,1,1.79-1.79,1.79,1.79,0,0,1,1.79,1.79v4.38h4.47a1.73,1.73,0,0,1,0,3.46h-4.47v4.37a1.79,1.79,0,0,1-1.79,1.8,1.77,1.77,0,0,1-1.79-1.8Z" style="fill:#ebebeb"></path></g></svg>